Coordinates
version=1
nRows=17
nColumns=24
inDegrees=yes

Units are S.I. units (second, meters, Newtons, ...)
Angles are in degrees.

endheader
time	pelvis_tilt	pelvis_list	pelvis_rotation	pelvis_tx	pelvis_ty	pelvis_tz	hip_flexion_r	hip_adduction_r	hip_rotation_r	knee_angle_r	ankle_angle_r	subtalar_angle_r	mtp_angle_r	hip_flexion_l	hip_adduction_l	hip_rotation_l	knee_angle_l	ankle_angle_l	subtalar_angle_l	mtp_angle_l	lumbar_extension	lumbar_bending	lumbar_rotation
      0.77100000	     -3.51691065	      6.55691537	     12.80998930	      0.02536765	      0.97742670	      0.25683474	     27.98052681	     -9.64120083	     -8.94463168	      2.09053586	      7.75370326	    -11.39868987	      3.92515647	    -21.00213724	      5.96198448	     14.24198604	     -1.57580069	      7.65725796	    -10.58418466	      5.22779211	     -0.34732107	     -9.07668707	     -3.66491567
      0.77516667	     -3.53097006	      6.52575683	     12.91749415	      0.03138498	      0.97681645	      0.25704968	     27.92411130	     -9.61453935	     -8.70747166	      1.83437794	      7.69578353	    -12.04551732	      3.91120369	    -21.16907350	      5.81810491	     14.24648982	     -1.86972318	      7.52718925	    -10.50668810	      5.30321292	     -0.31956976	     -9.02079465	     -3.64857805
      0.77933333	     -3.55000828	      6.46942140	     13.05405029	      0.03746626	      0.97625969	      0.25719108	     27.90229695	     -9.58235741	     -8.70049877	      1.46369966	      7.74952411	    -12.28767272	      3.90979679	    -21.31283126	      5.64415667	     14.28358505	     -2.18789622	      7.36212021	    -10.46083392	      5.32670878	     -0.28092033	     -8.93993035	     -3.67677491
      0.78350000	     -3.58050679	      6.41381303	     13.17017959	      0.04359475	      0.97570443	      0.25739632	     27.84999403	     -9.53236484	     -8.48111440	      1.15682259	      7.59423987	    -12.89570463	      3.91475992	    -21.42073619	      5.48201419	     14.25599153	     -2.55474152	      7.21764494	    -10.34022399	      5.45870441	     -0.20737795	     -8.84459599	     -3.85388119
      0.78766667	     -3.59911799	      6.32931496	     13.28532861	      0.04978975	      0.97519781	      0.25759227	     27.79886833	     -9.45108635	     -8.35002222	      0.79267184	      7.47279707	    -13.33271618	      3.93136403	    -21.53057194	      5.28836227	     14.23657557	     -2.92742321	      7.03017212	    -10.23544868	      5.60138187	     -0.14941641	     -8.71597123	     -3.92202725
      0.79183333	     -3.61107025	      6.24929667	     13.38210187	      0.05601340	      0.97472993	      0.25782218	     27.74322938	     -9.36061709	     -8.20112774	      0.40951981	      7.24195655	    -13.81092857	      3.96465309	    -21.62356014	      5.10861547	     14.17609223	     -3.34861832	      6.85087858	    -10.14108904	      5.80364015	     -0.08863752	     -8.59919504	     -3.99897962
      0.79600000	     -3.62163637	      6.14896679	     13.47377134	      0.06230721	      0.97429623	      0.25805767	     27.68291781	     -9.24421216	     -8.05792201	      0.01311875	      6.97131638	    -14.28738306	      4.01496579	    -21.70210570	      4.91108181	     14.09762730	     -3.79202070	      6.64436087	    -10.03867515	      6.04899354	     -0.01467353	     -8.45501483	     -4.06531455
      0.80016667	     -3.64338006	      6.01733638	     13.55833504	      0.06868176	      0.97388787	      0.25829078	     27.63838757	     -9.09378473	     -7.95196091	     -0.40382577	      6.68099862	    -14.69206685	      4.06072907	    -21.75678515	      4.68818236	     14.00983702	     -4.23941319	      6.36150571	     -9.94178854	      6.24485063	      0.09559248	     -8.26764240	     -4.11030350
      0.80433333	     -3.66300834	      5.88827633	     13.62817717	      0.07506667	      0.97352088	      0.25856488	     27.59414234	     -8.93426932	     -7.80956216	     -0.82941606	      6.28566736	    -15.18339196	      4.12027447	    -21.78118207	      4.47740676	     13.88259008	     -4.75086869	      6.10582717	     -9.82794590	      6.48279723	      0.19836770	     -8.09297384	     -4.15777303
      0.80850000	     -3.67654984	      5.76618008	     13.66679430	      0.08146112	      0.97317292	      0.25889693	     27.57132678	     -8.76651664	     -7.65998853	     -1.30714782	      5.88122209	    -15.64944492	      5.89878472	    -21.75967817	      4.28395244	     13.58336938	     -5.35635344	      5.82839644	     -9.60610472	     12.82121317	      0.30081112	     -7.93456257	     -4.17756599
      0.81266667	     -3.68538874	      5.60573163	     13.71484503	      0.08793666	      0.97290840	      0.25919443	     27.52389373	     -8.56044083	     -7.53556894	     -1.75865009	      5.38654358	    -16.16056588	      5.87963845	    -21.76696023	      4.05254912	     13.47802831	     -5.90320268	      5.50411844	     -9.57643341	     12.87963144	      0.40922646	     -7.71508811	     -4.19460516
      0.81683333	     -3.70937625	      5.43871466	     13.73573305	      0.09443908	      0.97264781	      0.25954382	     27.51578524	     -8.33870582	     -7.39981911	     -2.25031452	      4.89083964	    -16.62071147	      5.87937270	    -21.71398194	      3.82965166	     13.25501527	     -6.53130953	      5.17514515	     -9.42955749	     12.98794201	      0.55023098	     -7.49291524	     -4.19229514
      0.82100000	     -3.72661527	      5.25870848	     13.73673837	      0.10097182	      0.97243603	      0.25992276	     27.51281323	     -8.09405827	     -7.26690002	     -2.76438654	      4.37490533	    -17.05542802	      5.89639432	    -21.64067828	      3.60050754	     12.98581225	     -7.20182490	      4.82676280	     -9.24583858	     13.15512617	      0.68762948	     -7.25405590	     -4.17375181
      0.82516667	     -3.75005860	      5.07058870	     13.71765614	      0.10752028	      0.97226199	      0.26032823	     27.53616448	     -7.83564750	     -7.14440513	     -3.31465768	      3.85356653	    -17.44819426	      5.93083747	    -21.52999065	      3.37484305	     12.67541160	     -7.92303912	      4.45112836	     -9.03709228	     13.39080695	      0.83964896	     -7.00727955	     -4.13763936
      0.82933333	     -3.76496592	      4.87959625	     13.66957625	      0.11408096	      0.97213372	      0.26077755	     27.57702630	     -7.56314818	     -7.02784635	     -3.91355883	      3.31800622	    -17.80040315	      5.99070735	    -21.40467888	      3.15382250	     12.31675114	     -8.68168669	      4.05110909	     -8.77678340	     13.75206575	      0.98332373	     -6.75146460	     -4.08476030
      0.83350000	     -3.73415646	      4.67458921	     13.60898700	      0.12064957	      0.97212032	      0.26126745	     27.55869998	     -7.26077463	     -6.90626500	     -4.48982441	      2.81617874	    -18.10022924	      6.15898368	    -21.27437878	      2.90589675	     11.84024952	     -9.52503161	      3.60634501	     -8.40373873	     14.72292748	      1.06745738	     -6.47896816	     -4.01728694
      0.83766667	     -3.83037896	      4.46142476	     13.54783594	      0.12723321	      0.97197729	      0.26171097	     27.73773417	     -6.98868877	     -6.84859795	     -5.20575374	      2.42234430	    -18.29610797	      6.20697079	    -21.00795361	      2.70173549	     11.54611339	    -10.38038300	      3.13190193	     -8.34566962	     15.04352683	      1.33708588	     -6.20496355	     -3.95133901
